<svg id="svg" version="1.1" xmlns="http://www.w3.org/2000/svg" xmlns:xlink="http://www.w3.org/1999/xlink" width="400" height="122.59615384615385" viewBox="0, 0, 400,122.59615384615385"><g id="svgg"><path id="path0" d="M228.458 0.115 C 228.298 0.157,228.167 0.298,228.167 0.429 C 228.167 0.560,228.054 0.667,227.917 0.667 C 227.779 0.667,227.667 0.742,227.667 0.833 C 227.667 1.049,227.049 1.667,226.833 1.667 C 226.742 1.667,226.667 1.742,226.667 1.833 C 226.667 2.049,226.049 2.667,225.833 2.667 C 225.742 2.667,225.667 2.779,225.667 2.917 C 225.667 3.054,225.554 3.167,225.417 3.167 C 225.279 3.167,225.167 3.279,225.167 3.417 C 225.167 3.554,225.092 3.667,225.000 3.667 C 224.908 3.667,224.833 3.779,224.833 3.917 C 224.833 4.054,224.721 4.167,224.583 4.167 C 224.446 4.167,224.333 4.242,224.333 4.333 C 224.333 4.425,224.221 4.500,224.083 4.500 C 223.946 4.500,223.833 4.612,223.833 4.750 C 223.833 4.887,223.721 5.000,223.583 5.000 C 223.446 5.000,223.333 5.075,223.333 5.167 C 223.333 5.383,222.716 6.000,222.500 6.000 C 222.408 6.000,222.333 6.112,222.333 6.250 C 222.333 6.388,222.221 6.500,222.083 6.500 C 221.946 6.500,221.833 6.612,221.833 6.750 C 221.833 6.888,221.721 7.000,221.583 7.000 C 221.446 7.000,221.333 7.072,221.333 7.161 C 221.333 7.379,220.388 8.333,220.172 8.333 C 220.078 8.333,220.000 8.446,220.000 8.583 C 220.000 8.721,219.887 8.833,219.750 8.833 C 219.612 8.833,219.500 8.946,219.500 9.083 C 219.500 9.221,219.387 9.333,219.250 9.333 C 219.112 9.333,219.000 9.446,219.000 9.583 C 219.000 9.721,218.887 9.833,218.750 9.833 C 218.612 9.833,218.500 9.908,218.500 10.000 C 218.500 10.216,217.883 10.833,217.667 10.833 C 217.575 10.833,217.500 10.946,217.500 11.083 C 217.500 11.221,217.387 11.333,217.250 11.333 C 217.112 11.333,217.000 11.446,217.000 11.583 C 217.000 11.721,216.925 11.833,216.833 11.833 C 216.742 11.833,216.667 11.946,216.667 12.083 C 216.667 12.221,216.554 12.333,216.417 12.333 C 216.279 12.333,216.167 12.408,216.167 12.500 C 216.167 12.592,216.054 12.667,215.917 12.667 C 215.585 12.667,215.595 13.104,215.930 13.232 C 216.075 13.288,233.250 13.333,254.097 13.333 C 279.255 13.333,292.000 13.389,292.000 13.500 C 292.000 13.592,292.112 13.667,292.250 13.667 C 292.387 13.667,292.500 13.554,292.500 13.417 C 292.500 13.279,292.612 13.167,292.750 13.167 C 292.887 13.167,293.000 13.054,293.000 12.917 C 293.000 12.779,293.112 12.667,293.250 12.667 C 293.387 12.667,293.500 12.554,293.500 12.417 C 293.500 12.279,293.585 12.167,293.689 12.167 C 293.793 12.167,294.052 11.979,294.265 11.750 C 294.477 11.521,294.729 11.333,294.825 11.333 C 294.921 11.333,295.000 11.255,295.000 11.159 C 295.000 11.063,295.188 10.810,295.417 10.598 C 295.646 10.386,295.833 10.127,295.833 10.023 C 295.833 9.918,295.946 9.833,296.083 9.833 C 296.221 9.833,296.333 9.721,296.333 9.583 C 296.333 9.446,296.446 9.333,296.583 9.333 C 296.721 9.333,296.833 9.221,296.833 9.083 C 296.833 8.946,296.946 8.833,297.083 8.833 C 297.221 8.833,297.333 8.721,297.333 8.583 C 297.333 8.446,297.446 8.333,297.583 8.333 C 297.721 8.333,297.833 8.258,297.833 8.167 C 297.833 8.075,297.946 8.000,298.083 8.000 C 298.221 8.000,298.333 7.927,298.333 7.839 C 298.333 7.629,299.463 6.500,299.672 6.500 C 299.761 6.500,299.833 6.388,299.833 6.250 C 299.833 6.112,299.908 6.000,300.000 6.000 C 300.092 6.000,300.167 5.888,300.167 5.750 C 300.167 5.612,300.279 5.500,300.417 5.500 C 300.554 5.500,300.667 5.388,300.667 5.250 C 300.667 5.112,300.779 5.000,300.917 5.000 C 301.054 5.000,301.167 4.887,301.167 4.750 C 301.167 4.612,301.279 4.500,301.417 4.500 C 301.554 4.500,301.667 4.387,301.667 4.250 C 301.667 4.112,301.779 4.000,301.917 4.000 C 302.054 4.000,302.167 3.925,302.167 3.833 C 302.167 3.742,302.279 3.667,302.417 3.667 C 302.554 3.667,302.667 3.554,302.667 3.417 C 302.667 3.279,302.779 3.167,302.917 3.167 C 303.054 3.167,303.167 3.092,303.167 3.000 C 303.167 2.784,303.784 2.167,304.000 2.167 C 304.092 2.167,304.167 2.054,304.167 1.917 C 304.167 1.779,304.242 1.667,304.333 1.667 C 304.425 1.667,304.500 1.554,304.500 1.417 C 304.500 1.279,304.612 1.167,304.750 1.167 C 304.887 1.167,305.000 1.054,305.000 0.917 C 305.000 0.779,305.112 0.667,305.250 0.667 C 305.389 0.667,305.500 0.519,305.500 0.333 C 305.500 0.019,229.649 -0.196,228.458 0.115 M117.208 111.248 C 116.910 111.565,116.667 111.901,116.667 111.995 C 116.667 112.090,116.554 112.167,116.417 112.167 C 116.279 112.167,116.167 112.279,116.167 112.417 C 116.167 112.554,116.054 112.667,115.917 112.667 C 115.779 112.667,115.667 112.779,115.667 112.917 C 115.667 113.054,115.554 113.167,115.417 113.167 C 115.279 113.167,115.167 113.279,115.167 113.417 C 115.167 113.554,115.054 113.667,114.917 113.667 C 114.779 113.667,114.667 113.779,114.667 113.917 C 114.667 114.054,114.586 114.167,114.487 114.167 C 114.388 114.167,113.863 114.611,113.320 115.153 C 112.777 115.696,112.333 116.221,112.333 116.320 C 112.333 116.419,112.221 116.500,112.083 116.500 C 111.946 116.500,111.833 116.612,111.833 116.750 C 111.833 116.888,111.721 117.000,111.583 117.000 C 111.446 117.000,111.333 117.112,111.333 117.250 C 111.333 117.388,111.221 117.500,111.083 117.500 C 110.946 117.500,110.833 117.612,110.833 117.750 C 110.833 117.888,110.721 118.000,110.583 118.000 C 110.446 118.000,110.333 118.112,110.333 118.250 C 110.333 118.388,110.251 118.500,110.149 118.500 C 109.925 118.500,108.000 120.444,108.000 120.671 C 108.000 120.760,107.888 120.833,107.750 120.833 C 107.612 120.833,107.500 120.946,107.500 121.083 C 107.500 121.221,107.388 121.333,107.250 121.333 C 107.112 121.333,107.000 121.446,107.000 121.583 C 107.000 121.721,106.888 121.833,106.750 121.833 C 106.611 121.833,106.500 121.981,106.500 122.167 C 106.500 122.499,106.610 122.500,144.792 122.498 C 183.218 122.495,183.833 122.489,183.833 122.064 C 183.833 121.937,183.946 121.833,184.083 121.833 C 184.221 121.833,184.333 121.721,184.333 121.583 C 184.333 121.446,184.446 121.333,184.583 121.333 C 184.721 121.333,184.833 121.221,184.833 121.083 C 184.833 120.946,184.946 120.833,185.083 120.833 C 185.221 120.833,185.333 120.721,185.333 120.583 C 185.333 120.446,185.446 120.333,185.583 120.333 C 185.721 120.333,185.833 120.221,185.833 120.083 C 185.833 119.946,185.946 119.833,186.083 119.833 C 186.221 119.833,186.333 119.721,186.333 119.583 C 186.333 119.446,186.446 119.333,186.583 119.333 C 186.721 119.333,186.833 119.221,186.833 119.083 C 186.833 118.946,186.946 118.833,187.083 118.833 C 187.221 118.833,187.333 118.753,187.333 118.655 C 187.333 118.424,187.757 118.000,187.988 118.000 C 188.086 118.000,188.167 117.888,188.167 117.750 C 188.167 117.612,188.279 117.500,188.417 117.500 C 188.554 117.500,188.667 117.388,188.667 117.250 C 188.667 117.112,188.779 117.000,188.917 117.000 C 189.054 117.000,189.167 116.888,189.167 116.750 C 189.167 116.612,189.279 116.500,189.417 116.500 C 189.554 116.500,189.667 116.388,189.667 116.250 C 189.667 116.112,189.779 116.000,189.917 116.000 C 190.054 116.000,190.167 115.888,190.167 115.750 C 190.167 115.612,190.279 115.500,190.417 115.500 C 190.554 115.500,190.667 115.388,190.667 115.250 C 190.667 115.112,190.779 115.000,190.917 115.000 C 191.054 115.000,191.167 114.888,191.167 114.750 C 191.167 114.612,191.247 114.500,191.345 114.500 C 191.576 114.500,192.000 114.076,192.000 113.845 C 192.000 113.747,192.112 113.667,192.250 113.667 C 192.387 113.667,192.500 113.554,192.500 113.417 C 192.500 113.279,192.612 113.167,192.750 113.167 C 192.887 113.167,193.000 113.054,193.000 112.917 C 193.000 112.779,193.112 112.667,193.250 112.667 C 193.387 112.667,193.500 112.554,193.500 112.417 C 193.500 112.279,193.612 112.167,193.750 112.167 C 193.887 112.167,194.000 112.054,194.000 111.917 C 194.000 111.779,194.118 111.667,194.262 111.667 C 194.422 111.667,194.503 111.553,194.468 111.375 C 194.415 111.099,192.428 111.079,156.331 111.000 C 135.386 110.954,118.138 110.861,118.000 110.794 C 117.831 110.711,117.575 110.858,117.208 111.248 " stroke="none" fill="#5474fc" fill-rule="evenodd"></path><path id="path1" d="M79.834 0.647 C 79.467 1.003,79.167 1.378,79.167 1.480 C 79.167 1.583,79.054 1.667,78.917 1.667 C 78.779 1.667,78.667 1.779,78.667 1.917 C 78.667 2.054,78.554 2.167,78.417 2.167 C 78.279 2.167,78.167 2.279,78.167 2.417 C 78.167 2.554,78.054 2.667,77.917 2.667 C 77.779 2.667,77.667 2.779,77.667 2.917 C 77.667 3.054,77.554 3.167,77.417 3.167 C 77.279 3.167,77.167 3.279,77.167 3.417 C 77.167 3.554,77.054 3.667,76.917 3.667 C 76.779 3.667,76.667 3.779,76.667 3.917 C 76.667 4.054,76.554 4.167,76.417 4.167 C 76.279 4.167,76.167 4.242,76.167 4.333 C 76.167 4.425,76.054 4.500,75.917 4.500 C 75.779 4.500,75.667 4.579,75.667 4.675 C 75.667 4.771,75.479 5.023,75.250 5.235 C 75.021 5.448,74.833 5.707,74.833 5.811 C 74.833 5.915,74.721 6.000,74.583 6.000 C 74.446 6.000,74.333 6.112,74.333 6.250 C 74.333 6.388,74.221 6.500,74.083 6.500 C 73.946 6.500,73.833 6.612,73.833 6.750 C 73.833 6.888,73.721 7.000,73.583 7.000 C 73.446 7.000,73.333 7.112,73.333 7.250 C 73.333 7.388,73.221 7.500,73.083 7.500 C 72.946 7.500,72.833 7.612,72.833 7.750 C 72.833 7.888,72.748 8.000,72.644 8.000 C 72.540 8.000,72.281 8.188,72.069 8.417 C 71.856 8.646,71.604 8.833,71.508 8.833 C 71.412 8.833,71.333 8.912,71.333 9.008 C 71.333 9.104,71.146 9.356,70.917 9.569 C 70.688 9.781,70.500 10.040,70.500 10.144 C 70.500 10.248,70.387 10.333,70.250 10.333 C 70.112 10.333,70.000 10.446,70.000 10.583 C 70.000 10.721,69.887 10.833,69.750 10.833 C 69.612 10.833,69.500 10.946,69.500 11.083 C 69.500 11.221,69.387 11.333,69.250 11.333 C 69.112 11.333,69.000 11.446,69.000 11.583 C 69.000 11.721,68.887 11.833,68.750 11.833 C 68.612 11.833,68.500 11.946,68.500 12.083 C 68.500 12.221,68.387 12.333,68.250 12.333 C 68.112 12.333,68.000 12.408,68.000 12.500 C 68.000 12.592,67.887 12.667,67.750 12.667 C 67.612 12.667,67.500 12.779,67.500 12.917 C 67.500 13.072,67.343 13.167,67.083 13.167 C 66.824 13.167,66.667 13.261,66.667 13.417 C 66.667 13.634,65.935 13.667,61.083 13.667 L 55.500 13.667 55.500 14.917 L 55.500 16.167 204.333 16.167 L 353.167 16.167 353.167 14.916 L 353.167 13.665 322.458 13.750 C 242.042 13.972,144.000 13.788,144.000 13.416 C 144.000 13.279,144.075 13.167,144.167 13.167 C 144.258 13.167,144.333 13.057,144.333 12.922 C 144.333 12.788,147.146 9.871,150.583 6.440 C 154.021 3.009,156.833 0.156,156.833 0.101 C 156.833 0.045,139.658 0.000,118.667 0.000 L 80.500 0.000 79.834 0.647 M82.000 42.750 C 82.000 42.926,81.821 43.000,81.393 43.000 C 81.008 43.000,80.709 43.106,80.574 43.291 C 80.456 43.452,80.300 43.523,80.227 43.449 C 80.153 43.375,80.203 43.245,80.338 43.160 C 80.544 43.030,80.536 43.005,80.292 43.003 C 80.131 43.001,80.000 43.112,80.000 43.250 C 80.000 43.406,79.843 43.500,79.583 43.500 C 79.324 43.500,79.167 43.594,79.167 43.750 C 79.167 43.887,79.054 44.000,78.917 44.000 C 78.779 44.000,78.667 44.112,78.667 44.250 C 78.667 44.387,78.554 44.500,78.417 44.500 C 78.279 44.500,78.167 44.612,78.167 44.750 C 78.167 44.887,78.054 45.000,77.917 45.000 C 77.779 45.000,77.667 45.075,77.667 45.167 C 77.667 45.258,77.554 45.333,77.417 45.333 C 77.279 45.333,77.167 45.446,77.167 45.583 C 77.167 45.721,77.054 45.833,76.917 45.833 C 76.779 45.833,76.667 45.946,76.667 46.083 C 76.667 46.221,76.554 46.333,76.417 46.333 C 76.250 46.333,76.167 46.500,76.167 46.833 C 76.167 47.167,76.083 47.333,75.917 47.333 C 75.731 47.333,75.667 47.528,75.667 48.083 C 75.667 48.639,75.602 48.833,75.417 48.833 C 75.044 48.833,75.036 72.577,75.409 72.786 C 75.542 72.860,75.670 73.201,75.693 73.544 C 75.718 73.921,75.820 74.167,75.951 74.167 C 76.069 74.167,76.167 74.279,76.167 74.417 C 76.167 74.554,76.279 74.667,76.417 74.667 C 76.583 74.667,76.667 74.833,76.667 75.167 C 76.667 75.500,76.750 75.667,76.917 75.667 C 77.054 75.667,77.167 75.779,77.167 75.917 C 77.167 76.054,77.279 76.167,77.417 76.167 C 77.554 76.167,77.667 76.279,77.667 76.417 C 77.667 76.554,77.779 76.667,77.917 76.667 C 78.054 76.667,78.167 76.779,78.167 76.917 C 78.167 77.212,78.394 77.235,78.857 76.988 C 79.136 76.838,79.206 76.865,79.282 77.154 C 79.332 77.344,79.436 77.500,79.514 77.500 C 79.592 77.500,79.609 77.623,79.551 77.774 C 79.460 78.012,79.558 78.037,80.306 77.965 C 81.063 77.892,81.167 77.920,81.167 78.191 C 81.167 78.458,81.304 78.500,82.167 78.500 C 82.944 78.500,83.167 78.556,83.167 78.750 C 83.167 78.957,83.481 79.000,85.000 79.000 C 86.519 79.000,86.833 78.957,86.833 78.750 C 86.833 78.558,87.046 78.500,87.750 78.500 C 88.454 78.500,88.667 78.442,88.667 78.250 C 88.667 78.083,88.833 78.000,89.167 78.000 C 89.500 78.000,89.667 77.917,89.667 77.750 C 89.667 77.612,89.779 77.500,89.917 77.500 C 90.054 77.500,90.169 77.369,90.172 77.208 C 90.177 76.938,90.193 76.937,90.388 77.194 C 90.581 77.447,90.627 77.437,90.924 77.076 C 91.103 76.860,91.344 76.679,91.458 76.674 C 91.573 76.670,91.667 76.554,91.667 76.417 C 91.667 76.279,91.742 76.167,91.833 76.167 C 91.925 76.167,92.000 76.054,92.000 75.917 C 92.000 75.779,92.112 75.667,92.250 75.667 C 92.417 75.667,92.500 75.500,92.500 75.167 C 92.500 74.816,92.581 74.667,92.771 74.667 C 92.985 74.667,93.020 74.558,92.938 74.151 C 92.854 73.727,92.895 73.619,93.168 73.548 C 93.417 73.483,93.500 73.320,93.500 72.897 C 93.500 72.507,93.577 72.333,93.750 72.333 C 93.964 72.333,94.000 71.843,94.000 68.917 L 94.000 65.500 90.954 65.500 C 87.057 65.500,87.333 65.246,87.333 68.835 C 87.333 71.093,87.295 71.500,87.083 71.500 C 86.946 71.500,86.833 71.575,86.833 71.667 C 86.833 71.758,86.721 71.833,86.583 71.833 C 86.446 71.833,86.333 71.946,86.333 72.083 C 86.333 72.250,86.167 72.333,85.833 72.333 C 85.500 72.333,85.333 72.417,85.333 72.583 C 85.333 72.721,85.250 72.833,85.149 72.833 C 85.047 72.833,85.008 72.721,85.060 72.583 C 85.113 72.446,85.084 72.333,84.995 72.333 C 84.906 72.333,84.833 72.446,84.833 72.583 C 84.833 72.721,84.721 72.833,84.583 72.833 C 84.446 72.833,84.333 72.721,84.333 72.583 C 84.333 72.417,84.167 72.333,83.833 72.333 C 83.500 72.333,83.333 72.250,83.333 72.083 C 83.333 71.946,83.258 71.833,83.167 71.833 C 83.075 71.833,83.000 71.721,83.000 71.583 C 83.000 71.446,82.887 71.333,82.750 71.333 C 82.611 71.333,82.500 71.185,82.500 71.000 C 82.500 70.794,82.389 70.667,82.208 70.667 C 81.934 70.667,81.917 70.079,81.917 60.667 C 81.917 51.254,81.934 50.667,82.208 50.667 C 82.421 50.667,82.500 50.532,82.500 50.167 C 82.500 49.833,82.583 49.667,82.750 49.667 C 82.887 49.667,83.000 49.586,83.000 49.488 C 83.000 49.032,83.503 48.833,84.655 48.833 C 85.329 48.833,85.833 48.905,85.833 49.000 C 85.833 49.092,85.946 49.167,86.083 49.167 C 86.221 49.167,86.333 49.279,86.333 49.417 C 86.333 49.554,86.446 49.667,86.583 49.667 C 86.721 49.667,86.833 49.742,86.833 49.833 C 86.833 49.925,86.946 50.000,87.083 50.000 C 87.294 50.000,87.333 50.389,87.333 52.500 L 87.333 55.000 90.333 55.000 C 93.222 55.000,93.333 54.988,93.333 54.667 C 93.333 54.444,93.444 54.333,93.667 54.333 C 93.982 54.333,94.000 54.222,94.000 52.250 C 94.000 50.509,93.959 50.167,93.750 50.167 C 93.552 50.167,93.500 49.926,93.500 49.000 C 93.500 48.074,93.448 47.833,93.250 47.833 C 93.083 47.833,93.000 47.667,93.000 47.333 C 93.000 47.000,92.917 46.833,92.750 46.833 C 92.583 46.833,92.500 46.667,92.500 46.333 C 92.500 46.000,92.417 45.833,92.250 45.833 C 92.112 45.833,92.000 45.753,92.000 45.655 C 92.000 45.424,91.576 45.000,91.345 45.000 C 91.247 45.000,91.167 44.887,91.167 44.750 C 91.167 44.612,91.054 44.500,90.917 44.500 C 90.779 44.500,90.667 44.387,90.667 44.250 C 90.667 44.112,90.554 44.000,90.417 44.000 C 90.279 44.000,90.167 43.887,90.167 43.750 C 90.167 43.583,90.000 43.500,89.667 43.500 C 89.333 43.500,89.167 43.417,89.167 43.250 C 89.167 43.065,88.972 43.000,88.417 43.000 C 87.861 43.000,87.667 42.935,87.667 42.750 C 87.667 42.538,87.241 42.500,84.833 42.500 C 82.426 42.500,82.000 42.538,82.000 42.750 M124.000 43.266 C 124.000 43.412,123.850 43.570,123.667 43.618 C 123.214 43.737,123.131 70.833,123.583 70.833 C 123.783 70.833,123.833 71.083,123.833 72.083 C 123.833 73.083,123.883 73.333,124.083 73.333 C 124.239 73.333,124.333 73.491,124.333 73.750 C 124.333 74.009,124.428 74.167,124.583 74.167 C 124.750 74.167,124.833 74.333,124.833 74.667 C 124.833 74.942,124.908 75.167,125.000 75.167 C 125.092 75.167,125.167 75.279,125.167 75.417 C 125.167 75.554,125.279 75.667,125.417 75.667 C 125.554 75.667,125.667 75.779,125.667 75.917 C 125.667 76.054,125.779 76.167,125.917 76.167 C 126.054 76.167,126.167 76.279,126.167 76.417 C 126.167 76.554,126.279 76.667,126.417 76.667 C 126.554 76.667,126.667 76.783,126.667 76.924 C 126.667 77.128,126.788 77.159,127.250 77.072 C 127.721 76.984,127.833 77.015,127.833 77.231 C 127.833 77.407,127.978 77.500,128.250 77.500 C 128.518 77.500,128.667 77.594,128.667 77.763 C 128.667 77.959,128.804 78.012,129.208 77.972 C 129.646 77.929,129.741 77.975,129.701 78.210 C 129.659 78.459,129.794 78.500,130.659 78.500 C 131.444 78.500,131.667 78.555,131.667 78.750 C 131.667 78.951,131.926 79.000,133.000 79.000 C 134.074 79.000,134.333 78.951,134.333 78.750 C 134.333 78.550,134.583 78.500,135.583 78.500 C 136.583 78.500,136.833 78.450,136.833 78.250 C 136.833 78.094,136.991 78.000,137.250 78.000 C 137.509 78.000,137.667 77.906,137.667 77.750 C 137.667 77.583,137.833 77.500,138.167 77.500 C 138.442 77.500,138.667 77.425,138.667 77.333 C 138.667 77.242,138.779 77.167,138.917 77.167 C 139.054 77.167,139.167 77.054,139.167 76.917 C 139.167 76.779,139.279 76.667,139.417 76.667 C 139.554 76.667,139.667 76.554,139.667 76.417 C 139.667 76.279,139.779 76.167,139.917 76.167 C 140.054 76.167,140.167 76.054,140.167 75.917 C 140.167 75.779,140.279 75.667,140.417 75.667 C 140.554 75.667,140.667 75.554,140.667 75.417 C 140.667 75.279,140.779 75.167,140.917 75.167 C 141.054 75.167,141.167 75.054,141.167 74.917 C 141.167 74.779,141.279 74.667,141.417 74.667 C 141.583 74.667,141.667 74.500,141.667 74.167 C 141.667 73.892,141.742 73.667,141.833 73.667 C 141.925 73.667,142.000 73.367,142.000 73.000 C 142.000 72.519,142.069 72.333,142.250 72.333 C 142.470 72.333,142.500 70.593,142.500 57.667 L 142.500 43.000 139.167 43.000 L 135.833 43.000 135.833 56.768 C 135.833 68.937,135.804 70.525,135.583 70.440 C 135.396 70.368,135.333 70.467,135.333 70.839 C 135.333 71.167,135.249 71.333,135.083 71.333 C 134.946 71.333,134.833 71.446,134.833 71.583 C 134.833 71.721,134.721 71.833,134.583 71.833 C 134.446 71.833,134.333 71.946,134.333 72.083 C 134.333 72.240,134.175 72.333,133.911 72.333 C 133.679 72.333,133.446 72.446,133.394 72.583 C 133.341 72.721,133.231 72.833,133.149 72.833 C 133.067 72.833,133.000 72.721,133.000 72.583 C 133.000 72.398,132.806 72.333,132.250 72.333 C 131.694 72.333,131.500 72.269,131.500 72.083 C 131.500 71.946,131.387 71.833,131.250 71.833 C 131.083 71.833,131.000 71.667,131.000 71.333 C 131.000 71.000,130.917 70.833,130.750 70.833 C 130.530 70.833,130.500 69.213,130.500 57.250 C 130.500 43.778,130.497 43.667,130.167 43.667 C 129.944 43.667,129.833 43.556,129.833 43.333 C 129.833 43.013,129.722 43.000,126.917 43.000 C 124.359 43.000,124.000 43.033,124.000 43.266 M173.333 43.250 C 173.333 43.387,173.221 43.500,173.083 43.500 C 172.863 43.500,172.833 45.528,172.833 60.750 C 172.833 75.972,172.863 78.000,173.083 78.000 C 173.221 78.000,173.333 78.112,173.333 78.250 C 173.333 78.469,174.296 78.500,181.000 78.500 C 187.704 78.500,188.667 78.469,188.667 78.250 C 188.667 78.112,188.779 78.000,188.917 78.000 C 189.129 78.000,189.167 77.574,189.167 75.167 L 189.167 72.333 184.583 72.333 L 180.000 72.333 180.000 57.917 C 180.000 45.213,179.970 43.500,179.750 43.500 C 179.612 43.500,179.500 43.387,179.500 43.250 C 179.500 43.037,179.046 43.000,176.417 43.000 C 173.787 43.000,173.333 43.037,173.333 43.250 M218.500 60.500 C 218.500 75.944,218.529 78.000,218.750 78.000 C 218.887 78.000,219.000 78.112,219.000 78.250 C 219.000 78.462,219.417 78.500,221.750 78.500 C 224.155 78.500,224.500 78.467,224.500 78.234 C 224.500 78.088,224.650 77.930,224.833 77.882 C 225.155 77.798,225.167 77.654,225.167 73.814 C 225.167 70.387,225.201 69.833,225.417 69.833 C 225.554 69.833,225.667 69.721,225.667 69.583 C 225.667 69.371,226.102 69.333,228.583 69.333 C 230.417 69.333,231.500 69.271,231.500 69.167 C 231.500 69.075,231.725 69.000,232.000 69.000 C 232.333 69.000,232.500 68.917,232.500 68.750 C 232.500 68.594,232.657 68.500,232.917 68.500 C 233.176 68.500,233.333 68.406,233.333 68.250 C 233.333 68.083,233.500 68.000,233.833 68.000 C 234.167 68.000,234.333 67.917,234.333 67.750 C 234.333 67.612,234.446 67.500,234.583 67.500 C 234.721 67.500,234.833 67.387,234.833 67.250 C 234.833 67.112,234.946 67.000,235.083 67.000 C 235.221 67.000,235.333 66.887,235.333 66.750 C 235.333 66.612,235.446 66.500,235.583 66.500 C 235.721 66.500,235.833 66.387,235.833 66.250 C 235.833 66.112,235.946 66.000,236.083 66.000 C 236.436 66.000,236.396 65.670,236.042 65.654 C 235.832 65.644,235.815 65.615,235.982 65.548 C 236.454 65.361,236.833 64.915,236.833 64.546 C 236.833 64.320,236.934 64.167,237.083 64.167 C 237.269 64.167,237.333 63.972,237.333 63.417 C 237.333 63.004,237.408 62.667,237.500 62.667 C 237.608 62.667,237.667 60.389,237.667 56.167 C 237.667 51.944,237.608 49.667,237.500 49.667 C 237.408 49.667,237.333 49.367,237.333 49.000 C 237.333 48.519,237.264 48.333,237.083 48.333 C 236.917 48.333,236.833 48.167,236.833 47.833 C 236.833 47.500,236.750 47.333,236.583 47.333 C 236.446 47.333,236.333 47.221,236.333 47.083 C 236.333 46.946,236.221 46.833,236.083 46.833 C 235.917 46.833,235.833 46.667,235.833 46.333 C 235.833 46.000,235.750 45.833,235.583 45.833 C 235.446 45.833,235.333 45.721,235.333 45.583 C 235.333 45.446,235.221 45.333,235.083 45.333 C 234.946 45.333,234.833 45.258,234.833 45.167 C 234.833 45.075,234.608 45.000,234.333 45.000 C 234.000 45.000,233.833 44.917,233.833 44.750 C 233.833 44.612,233.721 44.500,233.583 44.500 C 233.446 44.500,233.333 44.387,233.333 44.250 C 233.333 44.094,233.176 44.000,232.917 44.000 C 232.657 44.000,232.500 43.906,232.500 43.750 C 232.500 43.565,232.306 43.500,231.750 43.500 C 231.194 43.500,231.000 43.435,231.000 43.250 C 231.000 43.032,230.194 43.000,224.750 43.000 L 218.500 43.000 218.500 60.500 M267.167 43.333 C 267.167 43.519,267.056 43.667,266.917 43.667 C 266.696 43.667,266.667 45.306,266.667 57.417 C 266.667 69.465,266.697 71.167,266.914 71.167 C 267.117 71.167,267.143 71.346,267.057 72.163 C 266.970 72.995,266.998 73.177,267.227 73.264 C 267.377 73.322,267.500 73.548,267.500 73.768 C 267.500 74.011,267.597 74.167,267.750 74.167 C 267.917 74.167,268.000 74.333,268.000 74.667 C 268.000 75.000,268.083 75.167,268.250 75.167 C 268.387 75.167,268.500 75.279,268.500 75.417 C 268.500 75.554,268.612 75.667,268.750 75.667 C 268.887 75.667,269.000 75.779,269.000 75.917 C 269.000 76.054,269.112 76.167,269.250 76.167 C 269.387 76.167,269.500 76.279,269.500 76.417 C 269.500 76.554,269.612 76.667,269.750 76.667 C 269.887 76.667,270.000 76.779,270.000 76.917 C 270.000 77.210,270.227 77.235,270.679 76.993 C 270.950 76.848,271.029 76.887,271.159 77.230 C 271.275 77.535,271.403 77.617,271.658 77.551 C 271.906 77.486,272.000 77.541,272.000 77.750 C 272.000 77.972,272.101 78.019,272.437 77.955 C 272.768 77.892,272.895 77.948,272.957 78.186 C 273.026 78.450,273.199 78.500,274.037 78.500 C 274.856 78.500,275.018 78.545,274.940 78.750 C 274.859 78.960,275.069 79.000,276.255 79.000 C 277.399 79.000,277.667 78.953,277.667 78.750 C 277.667 78.552,277.907 78.500,278.833 78.500 C 279.759 78.500,280.000 78.448,280.000 78.250 C 280.000 78.083,280.167 78.000,280.500 78.000 C 280.833 78.000,281.000 77.917,281.000 77.750 C 281.000 77.583,281.167 77.500,281.500 77.500 C 281.775 77.500,282.000 77.425,282.000 77.333 C 282.000 77.242,282.112 77.167,282.250 77.167 C 282.387 77.167,282.500 77.054,282.500 76.917 C 282.500 76.779,282.612 76.667,282.750 76.667 C 282.887 76.667,283.000 76.554,283.000 76.417 C 283.000 76.279,283.075 76.167,283.167 76.167 C 283.258 76.167,283.333 76.054,283.333 75.917 C 283.333 75.779,283.446 75.667,283.583 75.667 C 283.721 75.667,283.833 75.554,283.833 75.417 C 283.833 75.279,283.946 75.167,284.083 75.167 C 284.221 75.167,284.333 75.054,284.333 74.917 C 284.333 74.779,284.446 74.667,284.583 74.667 C 284.750 74.667,284.833 74.500,284.833 74.167 C 284.833 73.833,284.917 73.667,285.083 73.667 C 285.264 73.667,285.333 73.481,285.333 73.000 C 285.333 72.519,285.403 72.333,285.583 72.333 C 285.804 72.333,285.833 70.593,285.833 57.667 L 285.833 43.000 282.500 43.000 L 279.167 43.000 279.167 56.750 C 279.167 68.861,279.137 70.500,278.917 70.500 C 278.761 70.500,278.667 70.657,278.667 70.917 C 278.667 71.176,278.572 71.333,278.417 71.333 C 278.279 71.333,278.167 71.446,278.167 71.583 C 278.167 71.721,278.054 71.833,277.917 71.833 C 277.779 71.833,277.667 71.946,277.667 72.083 C 277.667 72.250,277.500 72.333,277.167 72.333 C 276.833 72.333,276.667 72.417,276.667 72.583 C 276.667 72.721,276.554 72.833,276.417 72.833 C 276.279 72.833,276.167 72.711,276.167 72.562 C 276.167 72.333,276.038 72.308,275.340 72.400 L 274.513 72.510 274.402 71.672 C 274.329 71.127,274.210 70.833,274.062 70.833 C 273.870 70.833,273.833 68.646,273.833 57.250 C 273.833 43.778,273.831 43.667,273.500 43.667 C 273.278 43.667,273.167 43.556,273.167 43.333 C 273.167 43.012,273.056 43.000,270.167 43.000 C 267.278 43.000,267.167 43.012,267.167 43.333 M316.750 43.333 C 316.692 43.517,316.537 43.667,316.405 43.667 C 316.200 43.667,316.167 46.044,316.167 60.833 C 316.167 75.981,316.196 78.000,316.417 78.000 C 316.554 78.000,316.667 78.112,316.667 78.250 C 316.667 78.462,317.088 78.500,319.459 78.500 L 322.252 78.500 322.483 77.978 C 322.610 77.691,322.853 77.420,323.024 77.375 C 323.319 77.298,323.333 76.994,323.333 70.981 L 323.333 64.667 323.833 64.667 C 324.167 64.667,324.333 64.750,324.333 64.917 C 324.333 65.072,324.491 65.167,324.750 65.167 C 324.979 65.167,325.167 65.242,325.167 65.333 C 325.167 65.425,325.392 65.500,325.667 65.500 C 326.000 65.500,326.167 65.583,326.167 65.750 C 326.167 65.887,326.279 66.000,326.417 66.000 C 326.554 66.000,326.667 66.112,326.667 66.250 C 326.667 66.387,326.779 66.500,326.917 66.500 C 327.083 66.500,327.167 66.667,327.167 67.000 C 327.167 67.333,327.250 67.500,327.417 67.500 C 327.583 67.500,327.667 67.667,327.667 68.000 C 327.667 68.333,327.750 68.500,327.917 68.500 C 328.133 68.500,328.167 69.111,328.167 73.000 C 328.167 76.889,328.201 77.500,328.417 77.500 C 328.554 77.500,328.667 77.612,328.667 77.750 C 328.667 77.887,328.779 78.000,328.917 78.000 C 329.054 78.000,329.167 78.112,329.167 78.250 C 329.167 78.461,329.564 78.500,331.745 78.500 C 333.968 78.500,334.310 78.466,334.227 78.250 C 334.166 78.090,334.230 78.000,334.404 78.000 C 334.554 78.000,334.720 77.887,334.773 77.750 C 334.826 77.612,334.973 77.500,335.101 77.500 C 335.292 77.500,335.333 76.917,335.333 74.250 C 335.333 71.472,335.297 71.000,335.083 71.000 C 334.946 71.000,334.833 70.879,334.833 70.732 C 334.833 70.563,334.925 70.500,335.083 70.560 C 335.221 70.613,335.333 70.584,335.333 70.495 C 335.333 70.406,335.221 70.333,335.083 70.333 C 334.878 70.333,334.833 70.037,334.833 68.667 C 334.833 67.296,334.789 67.000,334.583 67.000 C 334.398 67.000,334.333 66.806,334.333 66.250 C 334.333 65.694,334.269 65.500,334.083 65.500 C 333.928 65.500,333.833 65.343,333.833 65.083 C 333.833 64.824,333.739 64.667,333.583 64.667 C 333.417 64.667,333.333 64.500,333.333 64.167 C 333.333 63.892,333.258 63.667,333.167 63.667 C 333.075 63.667,333.000 63.554,333.000 63.417 C 333.000 63.279,332.887 63.167,332.750 63.167 C 332.612 63.167,332.500 63.054,332.500 62.917 C 332.500 62.779,332.387 62.667,332.250 62.667 C 332.112 62.667,332.000 62.554,332.000 62.417 C 332.000 62.279,332.112 62.167,332.250 62.167 C 332.387 62.167,332.500 62.054,332.500 61.917 C 332.500 61.779,332.612 61.667,332.750 61.667 C 332.887 61.667,333.000 61.586,333.000 61.488 C 333.000 61.257,333.424 60.833,333.655 60.833 C 333.753 60.833,333.833 60.721,333.833 60.583 C 333.833 60.446,333.946 60.333,334.083 60.333 C 334.250 60.333,334.333 60.167,334.333 59.833 C 334.333 59.500,334.417 59.333,334.583 59.333 C 334.750 59.333,334.833 59.167,334.833 58.833 C 334.833 58.500,334.917 58.333,335.083 58.333 C 335.299 58.333,335.333 57.741,335.333 54.000 C 335.333 50.259,335.299 49.667,335.083 49.667 C 334.903 49.667,334.833 49.481,334.833 49.000 C 334.833 48.519,334.764 48.333,334.583 48.333 C 334.417 48.333,334.333 48.167,334.333 47.833 C 334.333 47.500,334.250 47.333,334.083 47.333 C 333.917 47.333,333.833 47.167,333.833 46.833 C 333.833 46.500,333.750 46.333,333.583 46.333 C 333.446 46.333,333.333 46.253,333.333 46.154 C 333.333 46.055,333.114 45.755,332.846 45.487 C 332.578 45.219,332.278 45.000,332.179 45.000 C 332.081 45.000,332.000 44.887,332.000 44.750 C 332.000 44.583,331.833 44.500,331.500 44.500 C 331.151 44.500,331.000 44.419,331.000 44.231 C 331.000 44.015,330.887 43.984,330.417 44.072 C 329.904 44.168,329.833 44.140,329.833 43.841 C 329.833 43.562,329.727 43.500,329.250 43.500 C 328.843 43.500,328.667 43.425,328.667 43.250 C 328.667 42.800,316.893 42.882,316.750 43.333 M229.227 49.417 C 229.174 49.554,229.214 49.667,229.316 49.667 C 229.417 49.667,229.500 49.779,229.500 49.917 C 229.500 50.054,229.612 50.167,229.750 50.167 C 229.887 50.167,230.000 50.279,230.000 50.417 C 230.000 50.554,230.112 50.667,230.250 50.667 C 230.435 50.667,230.500 50.861,230.500 51.417 C 230.500 51.972,230.565 52.167,230.750 52.167 C 230.965 52.167,231.000 52.731,231.000 56.250 C 231.000 59.769,230.965 60.333,230.750 60.333 C 230.569 60.333,230.500 60.519,230.500 61.000 C 230.500 61.502,230.434 61.667,230.231 61.667 C 230.013 61.667,229.984 61.779,230.075 62.266 C 230.187 62.863,230.187 62.864,229.677 62.752 C 229.276 62.664,229.167 62.696,229.167 62.903 C 229.167 63.129,228.878 63.167,227.167 63.167 L 225.167 63.167 225.167 56.167 L 225.167 49.167 227.245 49.167 C 229.023 49.167,229.309 49.203,229.227 49.417 M326.667 49.417 C 326.667 49.591,326.842 49.667,327.246 49.667 C 327.800 49.667,327.821 49.688,327.725 50.167 C 327.647 50.558,327.684 50.667,327.896 50.667 C 328.052 50.667,328.167 50.802,328.167 50.988 C 328.167 51.164,328.287 51.333,328.434 51.363 C 328.668 51.410,328.702 51.789,328.702 54.333 C 328.702 56.877,328.668 57.257,328.434 57.304 C 328.287 57.334,328.167 57.465,328.167 57.596 C 328.167 57.726,328.054 57.833,327.917 57.833 C 327.779 57.833,327.667 57.946,327.667 58.083 C 327.667 58.221,327.554 58.333,327.417 58.333 C 327.279 58.333,327.167 58.446,327.167 58.583 C 327.167 58.721,327.022 58.833,326.845 58.833 C 326.639 58.833,326.503 58.969,326.466 59.208 C 326.429 59.449,326.321 59.556,326.163 59.506 C 326.027 59.463,325.335 59.401,324.625 59.368 L 323.333 59.308 323.333 54.237 L 323.333 49.167 325.000 49.167 C 326.370 49.167,326.667 49.211,326.667 49.417 M55.500 109.500 L 55.500 110.667 86.740 110.667 C 107.387 110.667,118.015 110.610,118.083 110.500 C 118.226 110.269,194.774 110.269,194.917 110.500 C 194.985 110.610,207.057 110.667,230.593 110.667 C 262.103 110.667,266.167 110.695,266.167 110.917 C 266.167 111.054,266.054 111.167,265.917 111.167 C 265.779 111.167,265.667 111.279,265.667 111.417 C 265.667 111.554,265.554 111.667,265.417 111.667 C 265.279 111.667,265.167 111.779,265.167 111.917 C 265.167 112.054,265.054 112.167,264.917 112.167 C 264.779 112.167,264.667 112.279,264.667 112.417 C 264.667 112.554,264.554 112.667,264.417 112.667 C 264.279 112.667,264.167 112.779,264.167 112.917 C 264.167 113.054,264.054 113.167,263.917 113.167 C 263.779 113.167,263.667 113.279,263.667 113.417 C 263.667 113.554,263.554 113.667,263.417 113.667 C 263.279 113.667,263.167 113.779,263.167 113.917 C 263.167 114.054,263.086 114.167,262.988 114.167 C 262.757 114.167,262.333 114.591,262.333 114.821 C 262.333 114.920,262.221 115.000,262.083 115.000 C 261.946 115.000,261.833 115.112,261.833 115.250 C 261.833 115.388,261.721 115.500,261.583 115.500 C 261.446 115.500,261.333 115.612,261.333 115.750 C 261.333 115.888,261.221 116.000,261.083 116.000 C 260.946 116.000,260.833 116.112,260.833 116.250 C 260.833 116.388,260.721 116.500,260.583 116.500 C 260.446 116.500,260.333 116.612,260.333 116.750 C 260.333 116.888,260.221 117.000,260.083 117.000 C 259.946 117.000,259.833 117.112,259.833 117.250 C 259.833 117.388,259.721 117.500,259.583 117.500 C 259.446 117.500,259.333 117.612,259.333 117.750 C 259.333 117.888,259.221 118.000,259.083 118.000 C 258.946 118.000,258.833 118.112,258.833 118.250 C 258.833 118.388,258.753 118.500,258.655 118.500 C 258.424 118.500,258.000 118.924,258.000 119.155 C 258.000 119.253,257.887 119.333,257.750 119.333 C 257.612 119.333,257.500 119.446,257.500 119.583 C 257.500 119.721,257.387 119.833,257.250 119.833 C 257.112 119.833,257.000 119.946,257.000 120.083 C 257.000 120.221,256.887 120.333,256.750 120.333 C 256.612 120.333,256.500 120.446,256.500 120.583 C 256.500 120.721,256.387 120.833,256.250 120.833 C 256.112 120.833,256.000 120.946,256.000 121.083 C 256.000 121.221,255.887 121.333,255.750 121.333 C 255.612 121.333,255.500 121.446,255.500 121.583 C 255.500 121.721,255.387 121.833,255.250 121.833 C 255.111 121.833,255.000 121.981,255.000 122.167 C 255.000 122.499,255.110 122.500,293.125 122.498 C 331.385 122.495,332.000 122.489,332.000 122.064 C 332.000 121.937,332.112 121.833,332.250 121.833 C 332.387 121.833,332.500 121.721,332.500 121.583 C 332.500 121.446,332.612 121.333,332.750 121.333 C 332.887 121.333,333.000 121.221,333.000 121.083 C 333.000 120.946,333.075 120.833,333.167 120.833 C 333.258 120.833,333.333 120.721,333.333 120.583 C 333.333 120.446,333.446 120.333,333.583 120.333 C 333.721 120.333,333.833 120.221,333.833 120.083 C 333.833 119.946,333.946 119.833,334.083 119.833 C 334.221 119.833,334.333 119.721,334.333 119.583 C 334.333 119.446,334.446 119.333,334.583 119.333 C 334.721 119.333,334.833 119.221,334.833 119.083 C 334.833 118.946,334.946 118.833,335.083 118.833 C 335.221 118.833,335.333 118.721,335.333 118.583 C 335.333 118.446,335.446 118.333,335.583 118.333 C 335.721 118.333,335.833 118.258,335.833 118.167 C 335.833 118.075,335.946 118.000,336.083 118.000 C 336.221 118.000,336.333 117.888,336.333 117.750 C 336.333 117.612,336.446 117.500,336.583 117.500 C 336.721 117.500,336.833 117.388,336.833 117.250 C 336.833 117.112,336.946 117.000,337.083 117.000 C 337.221 117.000,337.333 116.888,337.333 116.750 C 337.333 116.612,337.408 116.500,337.500 116.500 C 337.592 116.500,337.667 116.388,337.667 116.250 C 337.667 116.112,337.779 116.000,337.917 116.000 C 338.054 116.000,338.167 115.888,338.167 115.750 C 338.167 115.612,338.279 115.500,338.417 115.500 C 338.554 115.500,338.667 115.388,338.667 115.250 C 338.667 115.112,338.779 115.000,338.917 115.000 C 339.054 115.000,339.167 114.888,339.167 114.750 C 339.167 114.612,339.279 114.500,339.417 114.500 C 339.554 114.500,339.667 114.425,339.667 114.333 C 339.667 114.242,339.779 114.167,339.917 114.167 C 340.054 114.167,340.167 114.054,340.167 113.917 C 340.167 113.779,340.279 113.667,340.417 113.667 C 340.554 113.667,340.667 113.554,340.667 113.417 C 340.667 113.279,340.779 113.167,340.917 113.167 C 341.054 113.167,341.167 113.054,341.167 112.917 C 341.167 112.779,341.279 112.667,341.417 112.667 C 341.554 112.667,341.667 112.554,341.667 112.417 C 341.667 112.279,341.742 112.167,341.833 112.167 C 341.925 112.167,342.000 112.054,342.000 111.917 C 342.000 111.779,342.113 111.667,342.250 111.667 C 342.387 111.667,342.500 111.554,342.500 111.417 C 342.500 111.279,342.613 111.167,342.750 111.167 C 342.887 111.167,343.000 111.054,343.000 110.917 C 343.000 110.700,343.676 110.667,348.083 110.667 L 353.167 110.667 353.167 109.500 L 353.167 108.333 204.333 108.333 L 55.500 108.333 55.500 109.500 " stroke="none" fill="#040404" fill-rule="evenodd"></path><path id="path2" d="M215.758 13.308 C 215.958 13.527,292.000 13.677,292.000 13.458 C 292.000 13.390,274.944 13.333,254.097 13.333 C 233.250 13.333,216.057 13.285,215.889 13.225 C 215.666 13.147,215.630 13.169,215.758 13.308 M118.250 110.659 C 117.469 110.978,120.425 111.007,156.875 111.044 C 194.370 111.083,195.943 111.064,194.736 110.601 C 194.333 110.447,118.631 110.504,118.250 110.659 " stroke="none" fill="#4c64e4" fill-rule="evenodd"></path><path id="path3" d="M215.220 13.433 C 215.164 13.580,215.223 13.767,215.351 13.848 C 215.609 14.011,291.311 14.062,291.735 13.899 C 292.667 13.542,288.693 13.500,253.833 13.500 C 228.693 13.500,215.818 13.444,215.750 13.333 C 215.596 13.083,215.336 13.132,215.220 13.433 M118.167 110.458 C 118.167 110.527,135.447 110.583,156.567 110.583 C 177.688 110.583,194.933 110.527,194.891 110.458 C 194.790 110.295,118.167 110.295,118.167 110.458 " stroke="none" fill="#141c3c" fill-rule="evenodd"></path><path id="path4" d="M150.625 6.359 C 147.165 9.836,144.333 12.790,144.333 12.924 C 144.333 13.400,144.693 13.145,146.341 11.500 C 147.260 10.583,148.084 9.833,148.172 9.833 C 148.261 9.833,148.333 9.761,148.333 9.672 C 148.333 9.463,149.463 8.333,149.672 8.333 C 149.761 8.333,149.815 8.240,149.792 8.125 C 149.769 8.010,149.844 7.935,149.958 7.958 C 150.073 7.981,150.167 7.928,150.167 7.839 C 150.167 7.629,151.296 6.500,151.506 6.500 C 151.594 6.500,151.667 6.425,151.667 6.333 C 151.667 6.117,152.284 5.500,152.500 5.500 C 152.592 5.500,152.667 5.430,152.667 5.345 C 152.667 5.118,153.757 4.000,153.978 4.000 C 154.082 4.000,154.167 3.883,154.167 3.740 C 154.167 3.597,154.242 3.527,154.333 3.583 C 154.425 3.640,154.500 3.609,154.500 3.515 C 154.500 3.299,155.624 2.167,155.839 2.167 C 155.927 2.167,156.000 2.054,156.000 1.917 C 156.000 1.779,156.112 1.667,156.250 1.667 C 156.387 1.667,156.503 1.573,156.507 1.458 C 156.511 1.344,156.736 1.066,157.007 0.841 C 157.557 0.385,157.653 -0.010,157.208 0.019 C 157.048 0.029,154.085 2.882,150.625 6.359 M81.667 42.750 C 81.497 42.955,81.508 43.000,81.730 43.000 C 81.878 43.000,82.000 42.887,82.000 42.750 C 82.000 42.612,81.972 42.500,81.937 42.500 C 81.902 42.500,81.781 42.612,81.667 42.750 M80.333 43.167 C 80.201 43.248,80.148 43.371,80.216 43.438 C 80.284 43.506,80.426 43.474,80.533 43.367 C 80.785 43.115,80.645 42.974,80.333 43.167 M123.391 43.257 C 123.337 43.399,123.336 43.558,123.389 43.611 C 123.557 43.779,124.000 43.521,124.000 43.255 C 124.000 42.923,123.519 42.924,123.391 43.257 M129.833 43.333 C 129.833 43.556,129.944 43.667,130.167 43.667 C 130.389 43.667,130.500 43.556,130.500 43.333 C 130.500 43.111,130.389 43.000,130.167 43.000 C 129.944 43.000,129.833 43.111,129.833 43.333 M173.000 43.250 C 172.830 43.455,172.841 43.500,173.063 43.500 C 173.212 43.500,173.333 43.387,173.333 43.250 C 173.333 43.112,173.305 43.000,173.270 43.000 C 173.236 43.000,173.114 43.112,173.000 43.250 M266.778 43.111 C 266.575 43.314,266.663 43.667,266.917 43.667 C 267.056 43.667,267.167 43.519,267.167 43.333 C 267.167 43.001,266.989 42.900,266.778 43.111 M273.167 43.321 C 273.167 43.560,273.274 43.667,273.512 43.667 C 273.939 43.667,273.891 43.115,273.456 43.031 C 273.256 42.993,273.167 43.083,273.167 43.321 M316.167 43.333 C 316.167 43.729,316.587 43.781,316.732 43.403 C 316.879 43.021,316.867 43.000,316.500 43.000 C 316.278 43.000,316.167 43.111,316.167 43.333 M329.833 43.846 C 329.833 44.084,329.923 44.174,330.123 44.135 C 330.558 44.052,330.606 43.500,330.179 43.500 C 329.940 43.500,329.833 43.607,329.833 43.846 M228.667 49.417 C 228.667 49.554,228.771 49.667,228.899 49.667 C 229.027 49.667,229.174 49.554,229.227 49.417 C 229.292 49.247,229.218 49.167,228.995 49.167 C 228.814 49.167,228.667 49.279,228.667 49.417 M327.208 49.875 C 327.247 49.990,327.378 50.083,327.500 50.083 C 327.622 50.083,327.753 49.990,327.792 49.875 C 327.833 49.751,327.715 49.667,327.500 49.667 C 327.285 49.667,327.167 49.751,327.208 49.875 M86.833 50.333 C 86.833 50.519,86.944 50.667,87.083 50.667 C 87.222 50.667,87.333 50.519,87.333 50.333 C 87.333 50.148,87.222 50.000,87.083 50.000 C 86.944 50.000,86.833 50.148,86.833 50.333 M81.833 50.823 C 81.833 51.112,82.127 51.166,82.335 50.915 C 82.506 50.708,82.481 50.667,82.187 50.667 C 81.993 50.667,81.833 50.737,81.833 50.823 M328.195 51.694 C 328.225 51.908,328.362 52.083,328.500 52.083 C 328.861 52.083,328.812 51.433,328.445 51.362 C 328.208 51.317,328.152 51.391,328.195 51.694 M93.333 54.679 C 93.333 55.106,93.885 55.058,93.969 54.623 C 94.007 54.423,93.917 54.333,93.679 54.333 C 93.440 54.333,93.333 54.440,93.333 54.679 M328.167 56.917 C 328.167 57.247,328.240 57.344,328.458 57.302 C 328.619 57.271,328.750 57.097,328.750 56.917 C 328.750 56.736,328.619 56.563,328.458 56.532 C 328.240 56.490,328.167 56.586,328.167 56.917 M325.734 59.025 C 325.602 59.240,326.136 59.705,326.358 59.568 C 326.436 59.520,326.500 59.335,326.500 59.157 C 326.500 58.797,325.935 58.700,325.734 59.025 M229.679 62.326 C 229.416 62.488,229.584 62.833,229.927 62.833 C 230.180 62.833,230.260 62.411,230.034 62.271 C 229.961 62.226,229.801 62.250,229.679 62.326 M81.948 69.941 C 81.691 70.198,81.840 70.667,82.178 70.667 C 82.438 70.667,82.510 70.577,82.470 70.305 C 82.415 69.929,82.147 69.742,81.948 69.941 M135.446 70.067 C 135.352 70.312,135.460 70.500,135.694 70.500 C 135.771 70.500,135.833 70.350,135.833 70.167 C 135.833 69.785,135.579 69.719,135.446 70.067 M278.785 70.167 C 278.728 70.383,278.780 70.500,278.932 70.500 C 279.061 70.500,279.167 70.350,279.167 70.167 C 279.167 69.983,279.100 69.833,279.019 69.833 C 278.938 69.833,278.833 69.983,278.785 70.167 M334.833 70.736 C 334.833 70.881,334.952 71.000,335.097 71.000 C 335.242 71.000,335.331 70.911,335.295 70.802 C 335.192 70.493,334.833 70.442,334.833 70.736 M86.944 70.944 C 86.741 71.147,86.830 71.500,87.083 71.500 C 87.222 71.500,87.333 71.352,87.333 71.167 C 87.333 70.835,87.156 70.733,86.944 70.944 M266.667 71.500 C 266.667 71.685,266.778 71.833,266.917 71.833 C 267.056 71.833,267.167 71.685,267.167 71.500 C 267.167 71.315,267.056 71.167,266.917 71.167 C 266.778 71.167,266.667 71.315,266.667 71.500 M274.500 72.167 C 274.500 72.389,274.611 72.500,274.833 72.500 C 275.056 72.500,275.167 72.389,275.167 72.167 C 275.167 71.944,275.056 71.833,274.833 71.833 C 274.611 71.833,274.500 71.944,274.500 72.167 M92.917 73.667 C 92.777 73.892,92.965 74.167,93.260 74.167 C 93.392 74.167,93.500 74.017,93.500 73.833 C 93.500 73.488,93.098 73.373,92.917 73.667 M78.875 76.953 C 78.539 77.074,78.636 77.500,79.000 77.500 C 79.183 77.500,79.333 77.392,79.333 77.260 C 79.333 76.970,79.157 76.852,78.875 76.953 M270.708 76.953 C 270.372 77.074,270.470 77.500,270.833 77.500 C 271.017 77.500,271.167 77.392,271.167 77.260 C 271.167 76.970,270.990 76.852,270.708 76.953 M127.167 77.250 C 127.167 77.389,127.315 77.500,127.500 77.500 C 127.685 77.500,127.833 77.389,127.833 77.250 C 127.833 77.111,127.685 77.000,127.500 77.000 C 127.315 77.000,127.167 77.111,127.167 77.250 M322.603 77.744 C 322.454 77.970,322.333 78.233,322.333 78.327 C 322.333 78.591,322.665 78.533,322.773 78.250 C 322.826 78.112,322.973 78.000,323.101 78.000 C 323.229 78.000,323.333 77.850,323.333 77.667 C 323.333 77.206,322.927 77.249,322.603 77.744 M128.205 77.698 C 128.308 78.007,128.667 78.058,128.667 77.764 C 128.667 77.619,128.548 77.500,128.403 77.500 C 128.258 77.500,128.169 77.589,128.205 77.698 M271.417 77.667 C 271.360 77.758,271.349 77.833,271.393 77.833 C 271.437 77.833,271.591 77.879,271.736 77.934 C 271.909 78.001,272.000 77.944,272.000 77.768 C 272.000 77.474,271.581 77.401,271.417 77.667 M334.773 77.750 C 334.720 77.887,334.562 78.000,334.422 78.000 C 334.125 78.000,334.082 78.262,334.352 78.428 C 334.500 78.519,335.333 77.780,335.333 77.557 C 335.333 77.376,334.853 77.541,334.773 77.750 M80.687 77.984 C 80.418 78.154,80.579 78.500,80.927 78.500 C 81.059 78.500,81.167 78.350,81.167 78.167 C 81.167 77.805,81.044 77.758,80.687 77.984 M129.375 77.953 C 129.091 78.055,129.110 78.500,129.399 78.500 C 129.650 78.500,129.894 78.053,129.701 77.944 C 129.636 77.908,129.490 77.912,129.375 77.953 M224.611 77.944 C 224.382 78.174,224.512 78.500,224.833 78.500 C 225.056 78.500,225.167 78.389,225.167 78.167 C 225.167 77.845,224.841 77.715,224.611 77.944 M272.512 77.992 C 272.249 78.155,272.417 78.500,272.760 78.500 C 273.013 78.500,273.094 78.078,272.867 77.938 C 272.794 77.892,272.634 77.917,272.512 77.992 M82.500 78.750 C 82.500 78.889,82.648 79.000,82.833 79.000 C 83.019 79.000,83.167 78.889,83.167 78.750 C 83.167 78.611,83.019 78.500,82.833 78.500 C 82.648 78.500,82.500 78.611,82.500 78.750 M131.042 78.708 C 131.147 79.024,131.667 79.069,131.667 78.762 C 131.667 78.608,131.524 78.500,131.319 78.500 C 131.116 78.500,131.001 78.586,131.042 78.708 M274.333 78.762 C 274.333 78.917,274.447 79.002,274.611 78.971 C 275.029 78.889,275.087 78.500,274.681 78.500 C 274.476 78.500,274.333 78.608,274.333 78.762 " stroke="none" fill="#2c2c2c" fill-rule="evenodd"></path></g></svg>